solid coupon
facet normal 0 0 0
 outer loop
  vertex -15 -10 0
  vertex 15 -10 0
  vertex 15 -10 3
 endloop
endfacet
facet normal 0 0 0
 outer loop
  vertex -15 -10 0
  vertex 15 -10 3
  vertex -15 -10 3
 endloop
endfacet
facet normal 0 0 0
 outer loop
  vertex 5.2 -3 0
  vertex -5.2 -3 0
  vertex -5.2 -3 3
 endloop
endfacet
facet normal 0 0 0
 outer loop
  vertex 5.2 -3 0
  vertex -5.2 -3 3
  vertex 5.2 -3 3
 endloop
endfacet
facet normal 0 0 0
 outer loop
  vertex -15 -10 3
  vertex 15 -10 3
  vertex 5.2 -3 3
 endloop
endfacet
facet normal 0 0 0
 outer loop
  vertex -15 -10 3
  vertex 5.2 -3 3
  vertex -5.2 -3 3
 endloop
endfacet
facet normal 0 0 0
 outer loop
  vertex 15 -10 0
  vertex -15 -10 0
  vertex -5.2 -3 0
 endloop
endfacet
facet normal 0 0 0
 outer loop
  vertex 15 -10 0
  vertex -5.2 -3 0
  vertex 5.2 -3 0
 endloop
endfacet
facet normal 0 0 0
 outer loop
  vertex 15 -10 0
  vertex 15 10 0
  vertex 15 10 3
 endloop
endfacet
facet normal 0 0 0
 outer loop
  vertex 15 -10 0
  vertex 15 10 3
  vertex 15 -10 3
 endloop
endfacet
facet normal 0 0 0
 outer loop
  vertex 5.2 3 0
  vertex 5.2 -3 0
  vertex 5.2 -3 3
 endloop
endfacet
facet normal 0 0 0
 outer loop
  vertex 5.2 3 0
  vertex 5.2 -3 3
  vertex 5.2 3 3
 endloop
endfacet
facet normal 0 0 0
 outer loop
  vertex 15 -10 3
  vertex 15 10 3
  vertex 5.2 3 3
 endloop
endfacet
facet normal 0 0 0
 outer loop
  vertex 15 -10 3
  vertex 5.2 3 3
  vertex 5.2 -3 3
 endloop
endfacet
facet normal 0 0 0
 outer loop
  vertex 15 10 0
  vertex 15 -10 0
  vertex 5.2 -3 0
 endloop
endfacet
facet normal 0 0 0
 outer loop
  vertex 15 10 0
  vertex 5.2 -3 0
  vertex 5.2 3 0
 endloop
endfacet
facet normal 0 0 0
 outer loop
  vertex 15 10 0
  vertex -15 10 0
  vertex -15 10 3
 endloop
endfacet
facet normal 0 0 0
 outer loop
  vertex 15 10 0
  vertex -15 10 3
  vertex 15 10 3
 endloop
endfacet
facet normal 0 0 0
 outer loop
  vertex -5.2 3 0
  vertex 5.2 3 0
  vertex 5.2 3 3
 endloop
endfacet
facet normal 0 0 0
 outer loop
  vertex -5.2 3 0
  vertex 5.2 3 3
  vertex -5.2 3 3
 endloop
endfacet
facet normal 0 0 0
 outer loop
  vertex 15 10 3
  vertex -15 10 3
  vertex -5.2 3 3
 endloop
endfacet
facet normal 0 0 0
 outer loop
  vertex 15 10 3
  vertex -5.2 3 3
  vertex 5.2 3 3
 endloop
endfacet
facet normal 0 0 0
 outer loop
  vertex -15 10 0
  vertex 15 10 0
  vertex 5.2 3 0
 endloop
endfacet
facet normal 0 0 0
 outer loop
  vertex -15 10 0
  vertex 5.2 3 0
  vertex -5.2 3 0
 endloop
endfacet
facet normal 0 0 0
 outer loop
  vertex -15 10 0
  vertex -15 -10 0
  vertex -15 -10 3
 endloop
endfacet
facet normal 0 0 0
 outer loop
  vertex -15 10 0
  vertex -15 -10 3
  vertex -15 10 3
 endloop
endfacet
facet normal 0 0 0
 outer loop
  vertex -5.2 -3 0
  vertex -5.2 3 0
  vertex -5.2 3 3
 endloop
endfacet
facet normal 0 0 0
 outer loop
  vertex -5.2 -3 0
  vertex -5.2 3 3
  vertex -5.2 -3 3
 endloop
endfacet
facet normal 0 0 0
 outer loop
  vertex -15 10 3
  vertex -15 -10 3
  vertex -5.2 -3 3
 endloop
endfacet
facet normal 0 0 0
 outer loop
  vertex -15 10 3
  vertex -5.2 -3 3
  vertex -5.2 3 3
 endloop
endfacet
facet normal 0 0 0
 outer loop
  vertex -15 -10 0
  vertex -15 10 0
  vertex -5.2 3 0
 endloop
endfacet
facet normal 0 0 0
 outer loop
  vertex -15 -10 0
  vertex -5.2 3 0
  vertex -5.2 -3 0
 endloop
endfacet
endsolid coupon
